<?xml version="1.0" encoding="UTF-8" standalone="no"?>
<!DOCTYPE svg PUBLIC "-//W3C//DTD SVG 1.1//EN" "http://www.w3.org/Graphics/SVG/1.1/DTD/svg11.dtd">
<svg width="100%" height="100%" viewBox="0 0 300 300" version="1.1" xmlns="http://www.w3.org/2000/svg" xmlns:xlink="http://www.w3.org/1999/xlink" xml:space="preserve" xmlns:serif="http://www.serif.com/" style="fill-rule:evenodd;clip-rule:evenodd;stroke-linejoin:round;stroke-miterlimit:2;">
    <g id="Artboard1" transform="matrix(0.86429,0,0,0.950694,-0.0108846,-366.534)">
        <rect x="0.013" y="385.543" width="347.106" height="315.559" style="fill:none;"/>
        <g id="kanopy_app_icon" transform="matrix(1.39533,0,0,1.26852,-76.6246,330.434)">
            <rect x="59.07" y="47.59" width="240.47" height="240.47" style="fill:rgb(1,1,1);"/>
            <path d="M160.35,191.38L188.63,162.63C191.26,159.77 194.38,157.37 194.38,153.78C194.38,148.78 189.1,148.26 184.07,148.26L180,148.26L180,137.72L235.1,137.72L235.1,148.26C220.96,149.26 212.1,155.92 200.84,167.19L187.19,180.6L218.1,220.38C224.82,229 231.51,235.71 242.78,236.44L242.78,247L187.19,247L187.19,236.42L189.36,236.42C191.52,236.42 197.74,236.42 197.74,230.9C197.74,228.03 193.91,223.48 192.74,221.79L170.95,194.71L158.95,207.18L158.95,228.74C158.95,236.16 161.58,236.39 167.1,236.39L171.42,236.39L171.42,247L119.42,247L119.42,236.42L129.97,236.42C134.76,236.42 138.35,236.42 138.35,229L138.35,96C138.35,91.45 135.49,90.74 127.57,90.74L119.42,90.74L119.42,80L158.95,76.65L158.95,191.4L160.4,191.4L160.35,191.38Z" style="fill:white;fill-rule:nonzero;"/>
        </g>
    </g>
</svg>
